<svg width="24" height="24" viewBox="0 0 24 24" fill="none" xmlns="http://www.w3.org/2000/svg">
<rect width="24" height="24" rx="12" transform="matrix(-1 -8.74228e-08 -8.74228e-08 1 24 0)" fill="white"/>
<path d="M12.353 9.69743L12.001 9.34818L11.6488 9.69737L7.11342 14.195C6.97216 14.3349 6.744 14.3349 6.60274 14.195L6.60228 14.1945C6.53687 14.1299 6.5 14.0417 6.5 13.9495C6.5 13.8574 6.53687 13.7692 6.60228 13.7046L6.60294 13.7039L11.7449 8.60546L11.7454 8.60491C11.8861 8.46495 12.1139 8.46495 12.2546 8.60491L12.2551 8.60546L17.3971 13.7037L17.3975 13.7041C17.4632 13.7691 17.5 13.8575 17.5 13.9495C17.5 14.0416 17.4632 14.13 17.3975 14.1949L17.3974 14.195C17.2561 14.3349 17.0281 14.3348 16.8869 14.195C16.8868 14.195 16.8868 14.1949 16.8868 14.1949C16.8867 14.1949 16.8867 14.1949 16.8867 14.1949L12.353 9.69743Z" stroke="#D175B6"/>
</svg>
