<svg width="24" height="24" viewBox="0 0 24 24" fill="none" xmlns="http://www.w3.org/2000/svg">
<rect width="24" height="24" rx="12" transform="matrix(1 0 0 -1 0 24)" fill="white"/>
<path d="M11.647 14.3026L11.999 14.6518L12.3512 14.3026L16.8866 9.80505C17.0278 9.66514 17.256 9.66514 17.3973 9.80505L17.3977 9.8055C17.4631 9.87011 17.5 9.95835 17.5 10.0505C17.5 10.1426 17.4631 10.2308 17.3977 10.2954L17.3971 10.2961L12.2551 15.3945L12.2546 15.3951C12.1139 15.5351 11.8861 15.5351 11.7454 15.3951L11.7449 15.3945L6.60293 10.2963L6.60252 10.2959C6.53684 10.2309 6.5 10.1425 6.5 10.0505C6.5 9.95841 6.53684 9.87002 6.60252 9.80505L6.6026 9.80498C6.74389 9.66515 6.97194 9.66518 7.11314 9.80498C7.11318 9.80501 7.11321 9.80505 7.11325 9.80509C7.11326 9.8051 7.11327 9.80511 7.11328 9.80512L11.647 14.3026Z" stroke="#D175B6"/>
</svg>
