<svg width="40" height="40" viewBox="0 0 40 40" fill="none" xmlns="http://www.w3.org/2000/svg">
<path d="M20 3.33334C10.7952 3.33334 3.33331 10.7953 3.33331 20C3.33331 29.2047 10.7952 36.6667 20 36.6667C29.2046 36.6667 36.6666 29.2047 36.6666 20C36.6666 10.7953 29.2046 3.33334 20 3.33334Z" stroke="#D175B6" stroke-width="2.5" stroke-linecap="round" stroke-linejoin="round"/>
<path d="M20 8.33334C13.5567 8.33334 8.33331 13.5567 8.33331 20C8.33331 26.4433 13.5567 31.6667 20 31.6667C26.4433 31.6667 31.6666 26.4433 31.6666 20C31.6666 13.5567 26.4433 8.33334 20 8.33334Z" stroke="#D175B6" stroke-width="2.5" stroke-linecap="round" stroke-linejoin="round"/>
<path d="M20 3.33334V8.33334" stroke="#D175B6" stroke-width="2.5" stroke-linecap="round"/>
<path d="M20 31.6667V36.6667" stroke="#D175B6" stroke-width="2.5" stroke-linecap="round"/>
<path d="M5.56621 11.6667L9.89634 14.1667" stroke="#D175B6" stroke-width="2.5" stroke-linecap="round"/>
<path d="M30.1042 25.8333L34.4344 28.3333" stroke="#D175B6" stroke-width="2.5" stroke-linecap="round"/>
<path d="M34.4338 11.6667L30.1037 14.1667" stroke="#D175B6" stroke-width="2.5" stroke-linecap="round"/>
<path d="M9.89581 25.8333L5.56568 28.3333" stroke="#D175B6" stroke-width="2.5" stroke-linecap="round"/>
<path d="M17.3958 24.4445V15.5555M20 15.5555V13.3333M20 26.6667V24.4445M17.3958 20H22.6041M22.6041 20C23.4671 20 24.1666 20.7462 24.1666 21.6667V22.7778C24.1666 23.6983 23.4671 24.4445 22.6041 24.4445H15.8333M22.6041 20C23.4671 20 24.1666 19.2538 24.1666 18.3333V17.2222C24.1666 16.3017 23.4671 15.5555 22.6041 15.5555H15.8333" stroke="white" stroke-width="2.5" stroke-linecap="round" stroke-linejoin="round"/>
</svg>

